<?xml version="1.0" encoding="utf-8"?>
<!-- Generator: Adobe Illustrator 16.0.0, SVG Export Plug-In . SVG Version: 6.00 Build 0)  -->
<!DOCTYPE svg PUBLIC "-//W3C//DTD SVG 1.1//EN" "http://www.w3.org/Graphics/SVG/1.1/DTD/svg11.dtd">
<svg version="1.1" id="Layer_1" xmlns="http://www.w3.org/2000/svg" xmlns:xlink="http://www.w3.org/1999/xlink" x="0px" y="0px"
	 width="512px" height="512px" viewBox="0 0 512 512" enable-background="new 0 0 512 512" xml:space="preserve">
<path d="M256,31C131.736,31,31,131.736,31,256c0,124.264,100.736,225,225,225c124.264,0,225-100.736,225-225
	C481,131.736,380.264,31,256,31z M269.043,433.157c-4.038,9.938-16.557,15.9-25.211,7.247c-30.416-30.416-6.091-114.261-36.6-144.77
	c-30.509-30.51-115.483-7.313-145.9-37.73c-6.092-6.093-5.367-20.07,3.698-23.758c20.853-8.481,325.594-122.727,325.594-122.727
	S302.565,350.62,269.043,433.157z"/>
</svg>
