<?xml version="1.0" encoding="utf-8"?>
<!-- Generator: Adobe Illustrator 24.0.3, SVG Export Plug-In . SVG Version: 6.00 Build 0)  -->
<svg version="1.1" id="Capa_1" xmlns="http://www.w3.org/2000/svg" xmlns:xlink="http://www.w3.org/1999/xlink" x="0px" y="0px"
	 viewBox="0 0 329 555.3" style="enable-background:new 0 0 329 555.3;" xml:space="preserve">
<path style="fill:#7BC99C;" d="M164.5,554.4l-13.6-230.2l-83.6,47.2c-8.6,4.9-19.5-0.2-21.2-10L2.1,16.1C1,7.6,7.6,0,16.3,0h212.6
	c8.2,0,14.8,6.7,14.7,14.8L182,186.7l126-71.1c10.5-5.9,23.1,3.2,20.7,15L164.5,554.4z"/>
<path style="fill:#4AA875;" d="M164.5,554.4l76.7-344.1l-127.9,72.1L80.8,0h148.1c8.2,0,14.8,6.7,14.7,14.8L182,186.7l125.9-71
	c10.5-5.9,23.2,3.2,20.8,15.1L164.5,554.4z"/>
</svg>
